<?xml version="1.0" encoding="UTF-8"?>
<svg version="1.1" xmlns="http://www.w3.org/2000/svg" width="1620" height="2160">
<path d="M0 0 C534.6 0 1069.2 0 1620 0 C1620 712.8 1620 1425.6 1620 2160 C1085.4 2160 550.8 2160 0 2160 C0 1447.2 0 734.4 0 0 Z " fill="#ED1C7F" transform="translate(0,0)"/>
<path d="M0 0 C0.86916887 1.40751221 1.71985149 2.8264521 2.5625 4.25 C3.03816406 5.03890625 3.51382813 5.8278125 4.00390625 6.640625 C5.13022151 9.30844625 5.0169313 10.34501768 4 13 C2.205625 12.9071875 2.205625 12.9071875 0.375 12.8125 C-3.77173031 12.82720472 -6.52392121 13.59985036 -10 16 C-17.86846387 31.2468504 -8.767699 54.35087613 -5 70 C-4.59472871 71.72127806 -4.18972058 73.44261814 -3.78515625 75.1640625 C-2.4241593 80.85233179 -0.87978037 86.43998743 0.9375 92 C2.87407446 98.08852981 4.1266591 104.24353969 5.375 110.5 C7.07284504 118.96703967 9.09364681 127.21840292 11.55371094 135.49316406 C13.76209736 142.99160162 15.70815241 150.54716379 17.5970459 158.13092041 C18.12092269 160.23363466 18.64876579 162.3353276 19.17675781 164.43701172 C20.60300932 170.14413902 22.00762483 175.84522452 23.15234375 181.6171875 C24.58242542 190.03764065 24.58242542 190.03764065 29.3125 196.875 C31.12889639 198.08470715 31.12889639 198.08470715 33 199 C34.03125 199.598125 35.0625 200.19625 36.125 200.8125 C40.63784983 202.58244799 45.51506169 202.559946 50.3046875 202.7890625 C53 203 53 203 54 204 C53.91036938 205.69141656 53.75422324 207.37959602 53.5625 209.0625 C53.46066406 209.98160156 53.35882812 210.90070313 53.25390625 211.84765625 C53.17011719 212.55792969 53.08632813 213.26820313 53 214 C52.13125244 213.93941406 51.26250488 213.87882812 50.36743164 213.81640625 C35.58598332 212.80404496 20.82325203 211.80338851 6 211.8125 C5.01265869 211.81185547 4.02531738 211.81121094 3.00805664 211.81054688 C-2.04219689 211.84901501 -6.95763764 212.15809856 -11.96826172 212.77954102 C-14.83871594 213.09100703 -17.6776302 213.09565942 -20.5625 213.0625 C-21.59503906 213.05347656 -22.62757813 213.04445313 -23.69140625 213.03515625 C-24.83416016 213.01775391 -24.83416016 213.01775391 -26 213 C-26 209.7 -26 206.4 -26 203 C-24.85724609 202.96132812 -24.85724609 202.96132812 -23.69140625 202.921875 C-16.88318424 202.54789027 -10.82099012 201.78494873 -5 198 C-1.92442233 193.3866335 -3.1212513 189.31703708 -4 184 C-5.09690293 179.34109637 -6.43353306 174.76987473 -7.8125 170.1875 C-8.50651042 167.82682292 -9.20052083 165.46614583 -9.89453125 163.10546875 C-10.23822754 161.94966309 -10.58192383 160.79385742 -10.93603516 159.60302734 C-12.66527174 153.74711327 -14.33256538 147.87377757 -16 142 C-16.60336182 142.18933105 -17.20672363 142.37866211 -17.82836914 142.57373047 C-23.19963335 144.24640072 -28.61413552 145.72831202 -34.0625 147.125 C-34.71025391 147.29547852 -35.35800781 147.46595703 -36.02539062 147.64160156 C-45.83541847 150.1162475 -55.48164748 150.1295338 -65.5625 150.0625 C-67.50479492 150.05573242 -67.50479492 150.05573242 -69.48632812 150.04882812 C-72.657601 150.03712601 -75.82877546 150.02073113 -79 150 C-79.20157715 150.81154541 -79.4031543 151.62309082 -79.61083984 152.45922852 C-80.36654248 155.49918453 -81.12334117 158.53886507 -81.88085938 161.57836914 C-82.36671972 163.52925205 -82.8513394 165.4804438 -83.3359375 167.43164062 C-83.6453125 168.67236328 -83.9546875 169.91308594 -84.2734375 171.19140625 C-84.55622559 172.32779541 -84.83901367 173.46418457 -85.13037109 174.63500977 C-85.74519458 177.0140418 -86.39991618 179.38293071 -87.08251953 181.7434082 C-88.43477768 186.54324094 -88.89766053 191.07047438 -88 196 C-85.90296614 198.93327436 -83.20859864 200.39570068 -80 202 C-76.56283845 202.46953754 -73.12536977 202.86858485 -69.67773438 203.25 C-64.10174717 203.89825283 -64.10174717 203.89825283 -63 205 C-62.92820036 206.51928038 -62.91607993 208.04167482 -62.9375 209.5625 C-62.94652344 210.38878906 -62.95554687 211.21507812 -62.96484375 212.06640625 C-62.97644531 212.70449219 -62.98804688 213.34257813 -63 214 C-64.39572052 214.02736707 -65.79160221 214.04655989 -67.1875 214.0625 C-67.96480469 214.07410156 -68.74210938 214.08570313 -69.54296875 214.09765625 C-72 214 -72 214 -74.26171875 213.53125 C-89.72389047 210.53145634 -109.05416199 210.28626193 -124.45703125 213.5625 C-127.34154711 214.05876079 -130.07869834 214.06823478 -133 214 C-135.10706291 210.57602277 -135.08680713 207.96057533 -135 204 C-133.865625 203.86464844 -132.73125 203.72929688 -131.5625 203.58984375 C-120.51603219 202.34924222 -120.51603219 202.34924222 -111.58740234 196.33056641 C-109.75745085 193.64389816 -108.95916288 191.25805666 -108.05859375 188.13671875 C-107.72158447 186.98494141 -107.3845752 185.83316406 -107.03735352 184.64648438 C-106.69502686 183.44314453 -106.3527002 182.23980469 -106 181 C-105.65831787 179.82759766 -105.31663574 178.65519531 -104.96459961 177.44726562 C-103.92306088 173.86392029 -102.89708035 170.27643993 -101.875 166.6875 C-101.52824219 165.47771484 -101.18148437 164.26792969 -100.82421875 163.02148438 C-99.11582794 157.03557097 -97.45846365 151.05187237 -96 145 C-97.258125 144.79375 -98.51625 144.5875 -99.8125 144.375 C-111.50999181 141.71647913 -120.89855232 134.14789848 -128.4375 125.0625 C-132.19691899 117.69403877 -133.9442511 110.27695108 -133 102 C-132.608125 101.05125 -132.21625 100.1025 -131.8125 99.125 C-131.544375 98.42375 -131.27625 97.7225 -131 97 C-132.29467677 94.94009522 -132.29467677 94.94009522 -134 93 C-136.39567472 84.94182138 -134.86772679 77.3068966 -131 70 C-127.13827518 65.57106006 -123.3928808 62.35660909 -117.3984375 61.7265625 C-109.08774015 61.44739179 -103.64563406 62.96505962 -97.3359375 68.4453125 C-96.17401238 69.58127281 -95.07740184 70.78357857 -94 72 C-94.67546875 72.43570313 -95.3509375 72.87140625 -96.046875 73.3203125 C-102.90437458 77.89858534 -107.32952067 81.69607776 -109.58105469 89.89501953 C-110.40755167 94.0477334 -110.36900091 98.21713996 -110.375 102.4375 C-110.39949219 103.34048828 -110.42398438 104.24347656 -110.44921875 105.17382812 C-110.47314708 110.68133262 -109.74148213 114.54635784 -106.95947266 119.32836914 C-106 121 -106 121 -105 124 C-104.34 124 -103.68 124 -103 124 C-103 124.66 -103 125.32 -103 126 C-102.42765625 126.28617188 -101.8553125 126.57234375 -101.265625 126.8671875 C-97.84375 128.578125 -94.421875 130.2890625 -91 132 C-90.896875 131.113125 -90.79375 130.22625 -90.6875 129.3125 C-89.19863579 119.01924504 -86.21392643 109.07175637 -83.0625 99.1875 C-80.41966234 90.75533271 -77.97647379 82.34820388 -75.9140625 73.7578125 C-73.00341234 61.7918063 -69.41707529 50.06327858 -65.59765625 38.36010742 C-63.23580476 31.01363569 -61.30042672 23.60630443 -59.59765625 16.08056641 C-59.12224277 14.03955273 -58.56868352 12.01701608 -58 10 C-55.82428924 8.91214462 -54.40316933 8.7678813 -51.9921875 8.5703125 C-51.17814453 8.4988501 -50.36410156 8.4273877 -49.52539062 8.35375977 C-48.65076172 8.27826904 -47.77613281 8.20277832 -46.875 8.125 C-31.48938526 6.68777594 -15.0397053 -0.40647852 0 0 Z " fill="#FEFDFE" transform="translate(889,950)"/>
<path d="M0 0 C4.63245857 1.90617912 8.24637878 4.22925102 11.75 7.8125 C16.22038414 10.8214124 19.67252357 10.1395121 24.9296875 9.91796875 C29.2513384 10.03343271 30.83367928 11.1669762 34 14 C34.99 14.66 35.98 15.32 37 16 C37 17.32 37 18.64 37 20 C36.14535156 20.12117187 35.29070312 20.24234375 34.41015625 20.3671875 C33.30542969 20.53476562 32.20070313 20.70234375 31.0625 20.875 C29.96035156 21.03742187 28.85820313 21.19984375 27.72265625 21.3671875 C26.82417969 21.57601562 25.92570312 21.78484375 25 22 C23.83203221 24.33593558 23.86546792 25.71922661 23.84851074 28.32232666 C23.84016708 29.2304007 23.83182343 30.13847473 23.82322693 31.07406616 C23.81904251 32.07346222 23.81485809 33.07285828 23.81054688 34.10253906 C23.80225357 35.15323578 23.79396027 36.2039325 23.78541565 37.28646851 C23.76798058 39.57599612 23.75282332 41.86554192 23.73963928 44.15509796 C23.71861775 47.78848405 23.69158665 51.4217811 23.66296387 55.05511475 C23.6031771 62.78670859 23.55118317 70.51834511 23.5 78.25 C23.44059708 87.16989741 23.3779567 96.08975264 23.30812073 105.00957489 C23.2817652 108.57100572 23.26080768 112.13244114 23.2401123 115.69390869 C23.03500591 145.25470449 23.03500591 145.25470449 20.3125 157.3125 C20.14097412 158.07594727 19.96944824 158.83939453 19.79272461 159.62597656 C18.31649529 165.66515518 16.0597992 170.24758413 12 175 C11.2575 176.03125 10.515 177.0625 9.75 178.125 C5.92242009 182.12656081 1.64378763 185.01284447 -3 188 C-4.34578125 188.88558594 -4.34578125 188.88558594 -5.71875 189.7890625 C-16.61580151 196.58475121 -28.38661341 200.8885934 -41.125 202.5 C-41.81102295 202.58934814 -42.4970459 202.67869629 -43.20385742 202.77075195 C-48.5156734 203.29887292 -53.55660919 202.81283834 -57.9375 199.5625 C-59 198 -59 198 -59 195 C-59.77085937 194.97421875 -60.54171875 194.9484375 -61.3359375 194.921875 C-62.33882812 194.86515625 -63.34171875 194.8084375 -64.375 194.75 C-65.37273438 194.70359375 -66.37046875 194.6571875 -67.3984375 194.609375 C-68.25695312 194.40828125 -69.11546875 194.2071875 -70 194 C-71.1640625 192.015625 -71.1640625 192.015625 -72 190 C-72.99 189.67 -73.98 189.34 -75 189 C-76.375 186.875 -76.375 186.875 -77 184 C-75.29734197 177.05839418 -70.60734529 173.1654565 -65 169 C-58.05442083 165.21150227 -49.89908637 163.58425861 -42 164 C-42.2475 165.2065625 -42.2475 165.2065625 -42.5 166.4375 C-43.68666797 174.7331988 -43.68666797 174.7331988 -41.125 182.5 C-39.24775337 185.03939918 -39.24775337 185.03939918 -37 186 C-29.11579984 186.58820432 -22.22856131 186.2558898 -15 183 C-13.99582031 182.55140625 -12.99164062 182.1028125 -11.95703125 181.640625 C-2.97534412 177.5820671 -2.97534412 177.5820671 2.91796875 170.02734375 C8.56236014 154.1541492 6.16335236 134.28209326 6.16796875 117.7421875 C6.16939568 116.39386095 6.17099237 115.04553456 6.17275429 113.6972084 C6.18194433 106.65523099 6.18609591 99.61327228 6.18530273 92.57128906 C6.18469889 86.02952372 6.19532676 79.48784 6.2110464 72.94609535 C6.22412832 67.29901269 6.22948658 61.65195678 6.22884732 56.00485909 C6.22859317 52.64468809 6.23140065 49.2845904 6.24202538 45.92443466 C6.25180755 42.18897367 6.24895568 38.45372605 6.24291992 34.71826172 C6.24853943 33.61482925 6.25415894 32.51139679 6.25994873 31.37452698 C6.22762167 23.51284161 5.34038816 17.7301042 -0.00390625 11.74609375 C-3.84815526 8.38331624 -8.43061901 6.21964593 -13 4 C-12.625 2.0625 -12.625 2.0625 -12 0 C-8.24388322 -1.87805839 -3.99341355 -0.83410355 0 0 Z " fill="#FEFDFE" transform="translate(1030,966)"/>
<path d="M0 0 C5.67268276 1.24799021 8.82557003 2.92496122 13 7 C14.20190901 10.60572704 14.32670315 13.2102435 14 17 C11.31286051 21.10342006 8.66020157 23.01164202 4.25 25.0625 C2.66445313 25.82240234 2.66445313 25.82240234 1.046875 26.59765625 C-0.76900623 27.43342723 -2.59021987 28.2579832 -4.421875 29.05859375 C-9.25503577 31.24805192 -11.19093055 33.35050573 -14 38 C-22.82692173 46.34979083 -33.73489728 46.50902071 -45.1484375 46.36328125 C-54.4593942 45.98899544 -63.51492104 43.73755794 -72.54663086 41.57250977 C-95.50210522 36.2156994 -125.14639348 36.59627332 -145.76953125 49.0703125 C-148.91833835 51.02184696 -148.91833835 51.02184696 -151 54 C-151.66 54 -152.32 54 -153 54 C-153.28875 54.721875 -153.5775 55.44375 -153.875 56.1875 C-154.55981935 57.89954837 -155.27715448 59.59964278 -156.05078125 61.2734375 C-158.18988672 67.41786392 -157.6077092 74.4389398 -156.125 80.6875 C-152.80252649 84.30313294 -148.73716462 84.48451117 -144 85 C-144.33 86.32 -144.66 87.64 -145 89 C-150.04568593 90.41837254 -155.97535953 91.40227614 -160.87890625 89.12890625 C-163.74648942 86.93689405 -165.05436741 84.86999097 -166.4375 81.5625 C-168.20157969 77.54039831 -170.04249942 75.93854474 -173.4765625 73.359375 C-175.89477888 71.20158192 -175.9989059 69.01094096 -176.3125 65.875 C-175.62042297 57.29324488 -171.1832309 50.78908072 -165 45 C-162.15103792 42.69585935 -159.17482675 40.82434074 -156 39 C-154.99195313 38.41089844 -153.98390625 37.82179688 -152.9453125 37.21484375 C-144.23239121 32.47606092 -135.68538847 30.17618242 -125.96630859 28.37011719 C-123.48654649 27.90335293 -121.02704111 27.35321013 -118.5625 26.8125 C-105.27031635 24.30527821 -91.60499962 24.7038392 -78.13061523 24.52319336 C-67.73847511 24.37778176 -57.40456167 24.09965252 -47.0546875 23.1015625 C-45.85713585 22.98942162 -45.85713585 22.98942162 -44.63539124 22.87501526 C-28.7834166 21.19271888 -11.33076138 14.21190105 -1.0625 1.625 C-0.711875 1.08875 -0.36125 0.5525 0 0 Z " fill="#FEFCFD" transform="translate(755,959)"/>
<path d="M0 0 C0 0.66 0 1.32 0 2 C-0.61488281 2.24234375 -1.22976563 2.4846875 -1.86328125 2.734375 C-7.95750344 5.09598762 -7.95750344 5.09598762 -12 10 C-13.09387829 13.28163487 -13.16475305 15.77944229 -13.22119141 19.23583984 C-13.25585258 21.18208504 -13.25585258 21.18208504 -13.29121399 23.16764832 C-13.31156671 24.59874137 -13.33167563 26.0298379 -13.3515625 27.4609375 C-13.37530958 28.94969553 -13.3992961 30.43844977 -13.42350769 31.92720032 C-13.49930549 36.74302703 -13.56300554 41.55897861 -13.625 46.375 C-13.63575436 47.18820835 -13.64650871 48.0014167 -13.65758896 48.83926773 C-13.92091758 68.8389607 -14.18395272 88.84494731 -13.85784912 108.84527588 C-13.82778402 110.72958477 -13.80399036 112.61400488 -13.78668213 114.49847412 C-13.75980952 117.06628166 -13.70691061 119.63206066 -13.64453125 122.19921875 C-13.6401152 122.92917557 -13.63569916 123.65913239 -13.63114929 124.41120911 C-13.46826291 129.18377639 -12.37497428 131.64086523 -9 135 C-3.11461544 138.75203642 2.97362433 141.68061929 10 142 C10 144.97 10 147.94 10 151 C6.22950013 152.25683329 4.67001114 151.55046436 0.875 150.453125 C-0.37692139 150.10386963 -1.62884277 149.75461426 -2.91870117 149.39477539 C-3.58437103 149.207388 -4.25004089 149.02000061 -4.93588257 148.82693481 C-19.42783425 144.77633608 -33.5206696 142.40734817 -48.55932617 141.26196289 C-50.79360491 141.02215284 -52.8400309 140.60683197 -55 140 C-55 137.36 -55 134.72 -55 132 C-54.11957031 131.98582031 -53.23914063 131.97164062 -52.33203125 131.95703125 C-50.58986328 131.88548828 -50.58986328 131.88548828 -48.8125 131.8125 C-47.66394531 131.77769531 -46.51539063 131.74289062 -45.33203125 131.70703125 C-40.9683378 130.78108926 -39.69745691 129.54622987 -37 126 C-36.28430744 122.76521399 -36.35009243 119.60545814 -36.40405273 116.30371094 C-36.3999942 115.33232681 -36.39593567 114.36094269 -36.39175415 113.36012268 C-36.38624008 111.25396464 -36.3922365 109.14775199 -36.40841484 107.04164886 C-36.4338319 103.70309425 -36.42903626 100.36577469 -36.41651917 97.02716064 C-36.39576212 89.93463829 -36.41544495 82.84249721 -36.4375 75.75 C-36.45862791 67.54305957 -36.46310368 59.33651748 -36.43699837 51.12958527 C-36.43364761 47.84959302 -36.45482989 44.57036792 -36.47740173 41.29046631 C-36.47488885 39.2649316 -36.4713272 37.23939783 -36.46655273 35.21386719 C-36.47943832 34.3096553 -36.49232391 33.40544342 -36.50559998 32.47383118 C-36.44109774 24.22682234 -33.82309753 16.98485023 -28 11 C-20.09055824 3.97347267 -10.63119817 -0.24161814 0 0 Z " fill="#FEFDFE" transform="translate(677,1002)"/>
<path d="M0 0 C0.66 0 1.32 0 2 0 C6.64284709 14.65160761 10.98097274 29.22569883 14.16210938 44.27392578 C15.3055334 49.5334876 16.80294817 54.09618032 19 59 C19.67139292 61.27850667 20.29526853 63.57146521 20.875 65.875 C21.95435816 70.11487398 23.07868637 74.32602431 24.3671875 78.5078125 C24.59680176 79.25691895 24.82641602 80.00602539 25.06298828 80.77783203 C25.50927135 82.22135318 25.96296572 83.66261135 26.42529297 85.10107422 C27.81327882 89.62047828 28.21857092 93.33715376 28 98 C25.525253 99.13565077 23.04586848 100.25848108 20.5625 101.375 C19.87478516 101.69210937 19.18707031 102.00921875 18.47851562 102.3359375 C8.01460479 107.00819536 -1.77774046 107.26153516 -13.0625 107.125 C-14.51496778 107.11494832 -15.9674423 107.10582635 -17.41992188 107.09765625 C-20.94675682 107.07582017 -24.4733342 107.04141149 -28 107 C-27.38389677 99.99499064 -25.56806453 93.59951147 -23.5625 86.875 C-22.83244725 84.37594101 -22.10487664 81.87636065 -21.3828125 79.375 C-21.19156296 78.71249237 -21.00031342 78.04998474 -20.80326843 77.36740112 C-18.37768115 68.9066673 -16.16105668 60.39058874 -13.9375 51.875 C-13.51181257 50.2464974 -13.08611276 48.61799804 -12.66040039 46.98950195 C-12.0346123 44.59521185 -11.40890339 42.20090144 -10.78364563 39.80647278 C-8.8869605 32.55003112 -6.95234727 25.30418156 -5 18.0625 C-4.72148193 17.02786621 -4.44296387 15.99323242 -4.15600586 14.92724609 C-2.80916345 9.9398453 -1.43563077 4.96258904 0 0 Z " fill="#ED1D7F" transform="translate(841,979)"/>
</svg>
