<svg width="230" height="147" viewBox="0 0 230 147" fill="none" xmlns="http://www.w3.org/2000/svg">
<g filter="url(#filter0_d_3_2)">
<path d="M44.472 36.448C44.472 23.392 50.7867 16.864 63.416 16.864V18.016C61.88 18.016 60.6 18.272 59.576 18.784C58.6373 19.296 57.912 20.0213 57.4 20.96C56.888 21.8133 56.504 22.7947 56.248 23.904C56.0773 25.0133 55.992 26.208 55.992 27.488V93.792C55.992 95.84 56.376 97.4613 57.144 98.656C57.9973 99.8507 58.9787 100.747 60.088 101.344C61.2827 101.856 62.52 102.197 63.8 102.368C65.1653 102.539 66.36 102.624 67.384 102.624V108C66.36 108 65.08 107.957 63.544 107.872C62.008 107.701 60.4293 107.531 58.808 107.36C57.1867 107.189 55.608 107.061 54.072 106.976C52.536 106.805 51.256 106.72 50.232 106.72C49.208 106.72 47.928 106.805 46.392 106.976C44.856 107.061 43.2773 107.189 41.656 107.36C40.0347 107.531 38.456 107.701 36.92 107.872C35.384 107.957 34.104 108 33.08 108V102.624C34.1893 102.624 35.4267 102.539 36.792 102.368C38.1573 102.197 39.3947 101.856 40.504 101.344C41.6133 100.747 42.552 99.8507 43.32 98.656C44.088 97.4613 44.472 95.84 44.472 93.792V36.448ZM26.168 41.568C23.864 42.592 21.7307 43.104 19.768 43.104C16.7813 43.104 14.52 42.1227 12.984 40.16C11.5333 38.112 10.808 35.808 10.808 33.248C8.84533 33.248 7.224 32.4373 5.944 30.816C4.74933 29.1947 4.152 26.976 4.152 24.16C4.152 20.32 5.304 17.0773 7.608 14.432C9.99733 11.7867 13.0267 9.61066 16.696 7.90399C20.3653 6.19733 24.4187 4.95999 28.856 4.19199C33.3787 3.42399 37.7733 3.03999 42.04 3.03999C46.2213 3.03999 49.848 3.33866 52.92 3.936C55.992 4.53333 58.808 5.21599 61.368 5.98399C64.0133 6.66666 66.5307 7.30666 68.92 7.90399C71.3093 8.50133 73.9973 8.8 76.984 8.8C78.6053 8.8 80.312 8.67199 82.104 8.41599C83.896 8.16 85.6453 7.73333 87.352 7.13599C89.0587 6.45333 90.5947 5.55733 91.96 4.448C93.4107 3.33866 94.6053 1.93066 95.544 0.223991C96.7387 1.07733 97.8053 2.144 98.744 3.424C99.768 4.61866 100.28 6.06933 100.28 7.77599C100.28 8.45866 100.152 9.184 99.896 9.952C99.7253 10.72 99.2987 11.4453 98.616 12.128C98.0187 12.7253 97.1653 13.2373 96.056 13.664C94.9467 14.0907 93.496 14.304 91.704 14.304C91.704 16.7787 90.936 18.6133 89.4 19.808C87.9493 21.0027 85.944 21.6 83.384 21.6C80.6533 21.6 77.8373 21.0453 74.936 19.936C72.12 18.7413 69.048 17.4613 65.72 16.096C62.392 14.7307 58.7227 13.4933 54.712 12.384C50.7013 11.1893 46.2213 10.592 41.272 10.592C37.944 10.592 34.7867 10.9333 31.8 11.616C28.8987 12.2987 26.296 13.3653 23.992 14.816C21.7733 16.2667 20.024 18.1867 18.744 20.576C17.464 22.9653 16.824 25.8667 16.824 29.28C16.824 33.4613 17.72 36.448 19.512 38.24C21.304 39.9467 23.5227 40.8 26.168 40.8V41.568ZM151.955 62.688C149.48 53.6427 147.432 46.176 145.811 40.288C144.275 34.4 143.038 29.664 142.099 26.08C141.16 22.496 140.435 19.8507 139.923 18.144C139.496 16.4373 139.155 15.2427 138.899 14.56L123.411 67.04C124.862 67.2107 126.227 67.3387 127.507 67.424C128.787 67.5093 129.982 67.552 131.091 67.552C133.822 67.552 136.894 67.2533 140.307 66.656C143.72 66.0587 147.603 64.736 151.955 62.688ZM174.227 95.328C174.91 97.8027 176.574 99.6373 179.219 100.832C181.864 102.027 185.107 102.624 188.947 102.624V108C187.923 108 186.643 107.957 185.107 107.872C183.656 107.701 182.035 107.531 180.243 107.36C178.536 107.189 176.744 107.061 174.867 106.976C173.075 106.805 171.368 106.72 169.747 106.72C168.04 106.72 166.163 106.805 164.115 106.976C162.067 107.061 160.019 107.189 157.971 107.36C156.008 107.531 154.131 107.701 152.339 107.872C150.632 107.957 149.267 108 148.243 108V102.624C149.523 102.624 150.888 102.581 152.339 102.496C153.79 102.411 155.112 102.197 156.307 101.856C157.587 101.429 158.611 100.875 159.379 100.192C160.232 99.424 160.659 98.4 160.659 97.12C160.659 96.7787 160.574 96.2667 160.403 95.584C160.318 94.9013 160.019 93.6213 159.507 91.744C158.995 89.8667 158.27 87.2213 157.331 83.808C156.478 80.3093 155.283 75.616 153.747 69.728C148.627 71.52 144.104 72.7147 140.179 73.312C136.339 73.9093 132.798 74.208 129.555 74.208C128.36 74.208 127.08 74.1653 125.715 74.08C124.35 73.9947 122.942 73.8667 121.491 73.696L116.883 90.336C116.456 91.7013 116.115 92.896 115.859 93.92C115.603 94.8587 115.518 95.6693 115.603 96.352C115.603 97.888 115.987 99.0827 116.755 99.936C117.608 100.704 118.675 101.301 119.955 101.728C121.235 102.155 122.643 102.411 124.179 102.496C125.8 102.581 127.379 102.624 128.915 102.624V108C127.891 108 126.611 107.957 125.075 107.872C123.539 107.701 121.832 107.531 119.955 107.36C118.163 107.189 116.328 107.061 114.451 106.976C112.574 106.805 110.824 106.72 109.203 106.72C105.96 106.72 102.76 106.933 99.603 107.36C96.531 107.787 94.0137 108 92.051 108V102.624C95.891 102.624 99.0057 102.027 101.395 100.832C103.87 99.6373 105.491 97.8027 106.259 95.328L113.555 72.16C108.691 70.7093 104.552 68.448 101.139 65.376C97.811 62.2187 96.147 58.1227 96.147 53.088C96.147 51.7227 96.275 50.7413 96.531 50.144C96.8723 49.5467 97.3417 48.992 97.939 48.48C96.5737 46.8587 95.891 44.8533 95.891 42.464C95.891 41.0133 96.147 39.6053 96.659 38.24C97.2563 36.7893 98.0243 35.552 98.963 34.528C99.987 33.4187 101.182 32.5653 102.547 31.968C103.912 31.2853 105.448 30.944 107.155 30.944C108.008 30.944 108.776 31.072 109.459 31.328C110.227 31.4987 110.91 31.7973 111.507 32.224C112.19 32.5653 112.872 33.0773 113.555 33.76C114.323 34.3573 115.176 35.04 116.115 35.808C112.872 37.1733 110.526 39.2213 109.075 41.952C107.624 44.6827 106.899 47.5413 106.899 50.528C106.899 54.624 107.752 57.824 109.459 60.128C111.166 62.432 113.256 64.1387 115.731 65.248L134.931 7.392C139.283 7.392 143.72 6.92266 148.243 5.98399C152.766 5.04533 157.075 4.064 161.171 3.03999L163.731 7.52C161.939 7.86133 160.446 8.24533 159.251 8.672C158.142 9.01333 157.246 9.48266 156.563 10.08C155.966 10.592 155.539 11.2747 155.283 12.128C155.112 12.896 155.027 13.8773 155.027 15.072C155.027 15.9253 155.07 16.992 155.155 18.272C155.326 19.552 155.624 21.3867 156.051 23.776C156.563 26.08 157.246 29.0667 158.099 32.736C158.952 36.4053 160.062 41.0987 161.427 46.816C162.878 52.448 164.627 59.232 166.675 67.168C168.808 75.104 171.326 84.4907 174.227 95.328ZM214.151 92.512C214.151 100.875 213.596 107.957 212.487 113.76C211.463 119.648 209.799 124.427 207.495 128.096C205.191 131.765 202.204 134.453 198.535 136.16C194.866 137.867 190.428 138.72 185.223 138.72C179.42 138.72 175.111 137.824 172.295 136.032C169.479 134.24 168.071 131.979 168.071 129.248C166.108 128.48 164.572 127.243 163.463 125.536C162.268 123.915 161.671 122.123 161.671 120.16C161.671 117.941 162.482 116.192 164.103 114.912C165.724 113.632 167.943 112.992 170.759 112.992C173.319 112.992 174.983 113.461 175.751 114.4C174.983 115.936 174.599 117.6 174.599 119.392C174.599 123.317 175.623 126.347 177.671 128.48C179.719 130.699 183.218 131.808 188.167 131.808C191.068 131.808 193.543 131.339 195.591 130.4C197.639 129.547 199.175 128.011 200.199 125.792C200.626 124.853 200.967 123.616 201.223 122.08C201.564 120.629 201.82 118.752 201.991 116.448C202.247 114.229 202.418 111.499 202.503 108.256C202.588 105.099 202.631 101.259 202.631 96.736V16.608C202.631 13.9627 201.65 11.9573 199.687 10.592C197.724 9.14133 194.908 8.41599 191.239 8.41599C191.239 4.83199 193.543 3.03999 198.151 3.03999C202.332 3.03999 205.746 4.36266 208.391 7.008C211.036 4.36266 214.45 3.03999 218.631 3.03999C223.239 3.03999 225.543 4.83199 225.543 8.41599C221.959 8.41599 219.143 9.14133 217.095 10.592C215.132 12.0427 214.151 14.048 214.151 16.608V92.512Z" fill="white"/>
</g>
<defs>
<filter id="filter0_d_3_2" x="0.152" y="0.223991" width="229.391" height="146.496" filterUnits="userSpaceOnUse" color-interpolation-filters="sRGB">
<feFlood flood-opacity="0" result="BackgroundImageFix"/>
<feColorMatrix in="SourceAlpha" type="matrix" values="0 0 0 0 0 0 0 0 0 0 0 0 0 0 0 0 0 0 127 0" result="hardAlpha"/>
<feOffset dy="4"/>
<feGaussianBlur stdDeviation="2"/>
<feComposite in2="hardAlpha" operator="out"/>
<feColorMatrix type="matrix" values="0 0 0 0 0 0 0 0 0 0 0 0 0 0 0 0 0 0 0.25 0"/>
<feBlend mode="normal" in2="BackgroundImageFix" result="effect1_dropShadow_3_2"/>
<feBlend mode="normal" in="SourceGraphic" in2="effect1_dropShadow_3_2" result="shape"/>
</filter>
</defs>
</svg>
