<svg width="115" height="205" viewBox="0 0 115 205" fill="none" xmlns="http://www.w3.org/2000/svg">
<path d="M77.3125 2.01674C81.945 3.92292 85.5589 6.24599 89.0625 9.82924C93.5329 12.8382 96.985 12.1563 102.242 11.9347C106.564 12.0502 108.146 13.1837 111.312 16.0167C112.302 16.6767 113.293 17.3367 114.312 18.0167C114.312 19.3367 114.312 20.6567 114.312 22.0167C113.458 22.1379 112.603 22.2591 111.723 22.3839C110.618 22.5515 109.513 22.7191 108.375 22.8917C107.273 23.0542 106.171 23.2166 105.035 23.3839C104.137 23.5928 103.238 23.8016 102.312 24.0167C101.145 26.3527 101.178 27.736 101.161 30.3391C101.153 31.2471 101.144 32.1552 101.136 33.0908C101.132 34.0902 101.127 35.0896 101.123 36.1193C101.115 37.17 101.106 38.2207 101.098 39.3032C101.08 41.5927 101.065 43.8823 101.052 46.1718C101.031 49.8052 101.004 53.4385 100.975 57.0719C100.916 64.8035 100.864 72.5351 100.812 80.2667C100.753 89.1866 100.69 98.1065 100.621 107.026C100.594 110.588 100.573 114.149 100.553 117.711C100.348 147.271 100.348 147.271 97.625 159.329C97.4535 160.093 97.282 160.856 97.1052 161.643C95.629 167.682 93.3723 172.264 89.3125 177.017C88.57 178.048 87.8275 179.079 87.0625 180.142C83.2349 184.143 78.9563 187.03 74.3125 190.017C72.9667 190.902 72.9667 190.902 71.5938 191.806C60.6967 198.601 48.9259 202.905 36.1875 204.517C35.5015 204.606 34.8155 204.695 34.1086 204.787C28.7968 205.316 23.7559 204.83 19.375 201.579C18.3125 200.017 18.3125 200.017 18.3125 197.017C17.5416 196.991 16.7708 196.965 15.9766 196.939C14.9737 196.882 13.9708 196.825 12.9375 196.767C11.9398 196.72 10.942 196.674 9.91406 196.626C9.05555 196.425 8.19703 196.224 7.3125 196.017C6.14844 194.032 6.14844 194.032 5.3125 192.017C4.3225 191.687 3.3325 191.357 2.3125 191.017C0.9375 188.892 0.9375 188.892 0.3125 186.017C2.01516 179.075 6.70515 175.182 12.3125 171.017C19.2581 167.228 27.4134 165.601 35.3125 166.017C35.065 167.223 35.065 167.223 34.8125 168.454C33.6258 176.75 33.6258 176.75 36.1875 184.517C38.0647 187.056 38.0647 187.056 40.3125 188.017C48.1967 188.605 55.0839 188.273 62.3125 185.017C63.3167 184.568 64.3209 184.12 65.3555 183.657C74.3372 179.599 74.3372 179.599 80.2305 172.044C85.8749 156.171 83.4759 136.299 83.4805 119.759C83.4819 118.411 83.4835 117.062 83.4853 115.714C83.4944 108.672 83.4986 101.63 83.4978 94.588C83.4972 88.0463 83.5078 81.5046 83.5235 74.9628C83.5366 69.3158 83.542 63.6687 83.5414 58.0216C83.5411 54.6614 83.5439 51.3013 83.5545 47.9412C83.5643 44.2057 83.5615 40.4705 83.5554 36.735C83.561 35.6316 83.5667 34.5281 83.5724 33.3913C83.5401 25.5296 82.6529 19.7468 77.3086 13.7628C73.4643 10.4001 68.8819 8.23639 64.3125 6.01674C64.6875 4.07924 64.6875 4.07924 65.3125 2.01674C69.0686 0.138683 73.3191 1.18264 77.3125 2.01674Z" fill="#FEFDFE"/>
</svg>
