<svg width="217" height="227" viewBox="0 0 217 227" fill="none" xmlns="http://www.w3.org/2000/svg">
<path d="M167 0.999914C171.83 5.72223 171.83 5.72223 172.375 9.81241C172 11.9999 172 11.9999 171 12.9999C168.919 13.2703 166.835 13.5161 164.75 13.7499C159.229 14.445 159.229 14.445 154.75 17.4374C148.742 26.2343 152.487 42.282 154.312 52.2499C154.852 54.8381 155.415 57.4216 156 59.9999C156.154 60.6851 156.307 61.3702 156.466 62.0761C157.847 68.2019 159.301 74.3081 160.879 80.3861C163.9 92.0791 166.227 103.875 168.5 115.733C170.541 126.341 172.887 136.648 176 147C178.295 155.447 180.026 163.943 181.398 172.583C184.146 192.23 184.146 192.23 195 208C199.328 209.889 203.646 210.476 208.312 211.062C214.895 211.895 214.895 211.895 216 213C216.072 214.686 216.084 216.375 216.062 218.062C216.053 218.982 216.044 219.901 216.035 220.848C216.018 221.913 216.018 221.913 216 223C197.821 223.173 197.821 223.173 190.25 222.5C177.095 221.37 164.206 222.24 151.074 223.288C136.665 224.417 136.665 224.417 131 224C130 223 130 223 129.902 220.715C129.92 219.34 129.92 219.34 129.938 217.937C129.947 217.018 129.956 216.099 129.965 215.152C129.982 214.087 129.982 214.087 130 213C131.062 212.902 132.124 212.804 133.219 212.703C145.663 211.602 145.663 211.602 156 205C156.317 200.203 155.73 196.006 154.609 191.351C154.314 190.106 154.018 188.861 153.713 187.578C153.392 186.26 153.071 184.942 152.75 183.625C152.427 182.275 152.106 180.925 151.785 179.575C150.866 175.714 149.934 171.857 149 168C148.357 165.341 147.714 162.682 147.077 160.021C146.6 158.031 146.115 156.043 145.629 154.055C145 151 145 151 145 147C143.606 147.507 143.606 147.507 142.184 148.023C140.329 148.692 140.329 148.692 138.438 149.375C137.219 149.816 136.001 150.257 134.746 150.711C114.257 157.761 91.2485 159.343 70 155C69.8433 155.879 69.8433 155.879 69.6833 156.777C68.4077 163.564 66.6018 170.093 64.5625 176.687C64.1129 178.177 64.1129 178.177 63.6543 179.697C62.3811 183.854 61.1076 187.921 59.3086 191.883C57.4363 196.343 57.1444 200.248 58 205C61.3825 209.255 66.7562 211.021 72 212C77.0168 212.235 81.9794 212.179 87 212C88.3223 214.644 88.0968 216.678 88.0625 219.625C88.0535 220.628 88.0445 221.631 88.0352 222.664C88.0236 223.435 88.012 224.206 88 225C86.2501 225.028 84.5001 225.047 82.75 225.062C81.7755 225.074 80.8009 225.086 79.7969 225.098C76.779 225.02 73.8812 224.804 70.8828 224.508C62.5711 223.783 54.2566 223.814 45.9194 223.815C43.1375 223.812 40.356 223.794 37.5742 223.775C28.5215 223.748 19.8404 223.988 10.9058 225.569C7.88266 226.017 5.05164 226.141 2 226C1 225 1 225 0.867188 222.75C0.869766 221.842 0.872344 220.935 0.875 220C0.872422 219.092 0.869844 218.185 0.867188 217.25C1 215 1 215 2 214C3.75466 213.687 5.51036 213.38 7.27051 213.1C16.583 211.596 25.6756 209.574 32 202C33.1118 199.552 34.0595 197.215 34.9375 194.687C35.192 193.983 35.4465 193.279 35.7087 192.553C37.8396 186.607 39.8103 180.608 41.7773 174.605C43.338 170.003 45.0906 165.489 46.8633 160.965C48.3774 157.016 49.7037 153.025 51 149C50.0061 148.907 49.0123 148.814 47.9883 148.719C43.6466 148.09 40.0737 146.478 36.1875 144.5C35.4883 144.145 34.789 143.789 34.0686 143.423C23.1779 137.664 14.5817 129.098 9.5625 117.75C8.68237 111.882 8.31018 105.904 9 99.9999C10.5195 98.078 10.5195 98.078 12 96.9999C11.7113 96.2987 11.4225 95.5974 11.125 94.8749C10.7537 93.9262 10.3825 92.9774 10 91.9999C9.62875 91.1337 9.2575 90.2674 8.875 89.3749C7.03815 82.2899 6.91599 75.2881 10.6719 68.8476C14.554 63.4468 19.2371 58.3152 26 56.9999C40.0461 55.5745 48.3425 59.337 59 67.9999C58.505 69.4849 58.505 69.4849 58 70.9999C56.3492 71.6737 54.6973 72.3448 53.0391 72.9999C46.5236 76.1952 41.9561 81.4964 39 87.9999C36.5423 99.396 36.1089 112.372 42.1484 122.605C45.9422 127.512 50.4926 130.332 56 133C59.9311 123.212 63.6418 113.471 66.5664 103.332C67.981 98.7878 69.8026 94.4044 71.5864 89.9962C74.4173 82.9969 77.0995 75.9443 79.75 68.8749C80.005 68.1961 80.26 67.5174 80.5228 66.818C84.744 55.5653 88.7341 44.2465 92.6121 32.8713C100.23 10.5397 100.23 10.5397 103 4.99991C104.03 5.02348 104.03 5.02348 105.082 5.04752C118.062 5.30251 130.849 5.21056 143.75 3.62491C144.777 3.49883 145.805 3.37274 146.863 3.24283C166.201 0.663316 166.201 0.663315 167 0.999914Z" fill="#FEFDFE"/>
</svg>
