<svg width="124" height="243" viewBox="0 0 124 243" fill="none" xmlns="http://www.w3.org/2000/svg">
<path d="M76.9999 0C83.1844 0.126213 88.017 2.39982 92.9999 6C94.4636 7.53803 95.9005 9.1019 97.3124 10.6875C101.651 15.3 105.09 16.0051 111.258 16.6172C115.16 17.162 117.02 18.4787 120 21C120.598 21.4331 121.196 21.8663 121.812 22.3125C123.691 24.9823 123.699 27.8141 124 31C119.05 30.01 119.05 30.01 114 29C114 29.66 114 30.32 114 31C113.34 31 112.68 31 112 31C111.998 31.6076 111.995 32.2151 111.993 32.8411C111.933 47.7371 111.857 62.633 111.764 77.5288C111.72 84.7328 111.68 91.9368 111.654 99.1409C111.63 105.432 111.597 111.723 111.551 118.014C111.528 121.334 111.51 124.654 111.502 127.974C111.367 179.503 111.367 179.503 97.9999 198C97.3786 198.908 96.7573 199.815 96.1171 200.75C92.467 205.968 89.0712 210.168 83.9999 214C83.2678 214.759 82.5356 215.519 81.7812 216.301C78.6226 219.366 75.3108 221.831 71.6874 224.312C70.9932 224.788 70.299 225.264 69.5837 225.754C57.0433 234.153 41.5487 243.152 25.9999 242C23.6243 240.28 22.6578 238.487 20.9999 236C20.5049 236.165 20.0099 236.33 19.4999 236.5C13.5566 237.689 9.62434 237.853 4.49994 234.5C1.38511 231.899 1.04771 231.274 0.312439 227.062C0.81333 218.927 5.96372 213.032 11.6249 207.723C19.304 201.138 32.8403 194 42.9999 194C42.8929 194.918 42.786 195.836 42.6757 196.781C41.9647 204.059 41.4867 209.475 44.9999 216C49.3879 218.925 52.8509 218.863 57.9999 218C70.29 213.331 83.7415 205.675 89.6874 193.562C94.5343 178.816 93.2769 162.397 93.2304 147.121C93.2292 144.502 93.2288 141.882 93.229 139.262C93.2281 133.781 93.2195 128.301 93.2057 122.82C93.1901 116.571 93.1847 110.322 93.1855 104.074C93.1861 97.9744 93.1808 91.8753 93.1727 85.7763C93.1696 83.2249 93.1676 80.6735 93.1668 78.1221C93.1624 70.9757 93.1124 63.8316 93.0239 56.6857C93.0028 53.436 93.0243 50.1911 93.064 46.9418C93.0825 44.8941 93.0802 42.8476 93.07 40.7999C93.0583 38.2252 93.0789 35.6502 93.1381 33.0762C93.0315 24.9221 91.2268 20.813 85.4261 15.0556C81.8302 12.0089 78.0722 9.36824 73.9999 7C74.7499 2.25 74.7499 2.25 76.9999 0Z" fill="#FEFCFD"/>
</svg>
