<svg width="61" height="112" viewBox="0 0 61 112" fill="none" xmlns="http://www.w3.org/2000/svg">
<path d="M35 0C37.366 3.54905 38.2185 7.04826 39.25 11.125C39.4625 11.9496 39.675 12.7742 39.894 13.6238C43.3501 27.1447 46.7331 40.7077 49.5625 54.375C51.5509 63.8984 54.1873 73.2634 56.7143 82.6548C57.4167 85.2691 58.1146 87.8845 58.8125 90.5C59.0315 91.3072 59.2504 92.1144 59.4761 92.946C60.3017 96.0428 61 98.7799 61 102C55.1008 104.666 49.1407 106.615 42.875 108.188C42.2188 108.354 41.5627 108.521 40.8867 108.692C32.8808 110.638 25.0868 111.181 16.875 111.188C16.0074 111.2 15.1399 111.212 14.2461 111.225C9.46331 111.236 5.43744 111.02 0.99998 109C-0.441328 106.117 0.702696 104.291 1.66371 101.367C1.93065 100.579 2.1976 99.7917 2.47264 98.9805C2.74683 98.1508 3.02103 97.3212 3.30354 96.4664C3.90198 94.6572 4.50365 92.849 5.1081 91.0417C6.73628 86.1724 8.34103 81.2953 9.94529 76.418C10.2795 75.4031 10.6138 74.3882 10.9582 73.3425C13.3076 66.1822 15.5812 59.0011 17.8047 51.8008C18.1114 50.8078 18.418 49.8148 18.734 48.7918C19.9232 44.9343 21.1096 41.076 22.2861 37.2147C26.1171 24.6418 30.3254 12.2853 35 0Z" fill="#FFBDBF"/>
</svg>
