<svg width="64" height="167" viewBox="0 0 64 167" fill="none" xmlns="http://www.w3.org/2000/svg">
<path d="M53 1.00005C50.5479 3.74639 48.7924 5.09311 45.375 6.62505C43.057 7.90294 42.1723 8.58812 41.1406 11.0547C40.5825 13.7018 40.2899 16.3105 40 19.0001C39.9063 19.8169 39.8126 20.6338 39.716 21.4754C38.7548 31.1659 38.9732 40.8134 39.1211 50.5352C39.1455 52.4231 39.1693 54.311 39.1927 56.1989C39.2551 61.1481 39.3242 66.0973 39.3949 71.0464C39.4929 77.9813 39.5818 84.9163 39.6717 91.8512C39.7193 95.5311 39.7695 99.2109 39.8219 102.891C39.8336 103.749 39.8452 104.608 39.8573 105.492C39.8804 107.178 39.9051 108.864 39.9315 110.55C39.9907 114.799 39.9937 119.038 39.9102 123.287C39.8972 124.146 39.8841 125.005 39.8707 125.89C39.8434 127.513 39.8038 129.137 39.7493 130.759C39.6564 136.938 41.152 140.902 45.3125 145.625C49.9187 149.696 54.8517 152.533 60.3633 155.168C62 156 62 156 63 157C63.0721 158.686 63.0839 160.375 63.0625 162.063C63.0535 162.982 63.0445 163.901 63.0352 164.848C63.0236 165.558 63.012 166.268 63 167C59.2466 166.382 56.1266 165.296 52.6758 163.707C51.6558 163.244 50.6359 162.782 49.585 162.305C48.5051 161.812 47.4252 161.32 46.3125 160.813C31.866 154.347 17.5337 149.129 2.00002 146C-0.124979 139.375 -0.124979 139.375 1.00002 136C1.90365 136.023 2.80729 136.046 3.7383 136.07C4.91779 136.088 6.09729 136.106 7.31252 136.125C8.48428 136.148 9.65604 136.171 10.8633 136.195C14.164 136.253 14.164 136.253 17 134C17.9641 130.727 18.107 127.669 18.0217 124.274C18.0017 123.359 17.9816 122.444 17.9609 121.501C17.9338 120.516 17.9068 119.531 17.8789 118.516C17.8552 117.48 17.8315 116.443 17.8071 115.376C17.7561 113.154 17.7029 110.932 17.6477 108.71C17.5048 102.905 17.3831 97.0989 17.2617 91.293C17.2375 90.1437 17.2134 88.9944 17.1884 87.8102C16.9191 74.6438 16.8096 61.4847 16.9629 48.316C16.9869 46.1692 17.0019 44.0224 17.0059 41.8755C17.0451 30.0935 17.5967 21.1438 25.8242 11.9649C31.7941 6.26143 44.365 -2.45394 53 1.00005Z" fill="#FEFDFE"/>
</svg>
