<svg width="190" height="105" viewBox="0 0 190 105" fill="none" xmlns="http://www.w3.org/2000/svg">
<path d="M170 0C175.944 0.469285 181.053 2.76887 186 6C188.556 9.35905 188.983 11.1257 189.062 15.3125C187.359 21.2252 185.573 25.9007 180.018 29.1646C173.639 32.3877 166.98 35.3806 160 37C159.835 38.1756 159.67 39.3513 159.5 40.5625C158.128 46.0891 154.51 48.8157 150 52C134.704 61.1775 109.911 56.4437 92.8125 54C70.4915 50.8339 46.9004 49.8273 27.1992 62.8516C20.7046 68.1875 17.5456 73.3885 16.5586 81.7305C16.033 88.6578 16.033 88.6578 18.2461 95.0391C20.6084 97.0538 23.0761 98.0254 26 99C25.67 100.32 25.34 101.64 25 103C16.1588 104.579 16.1588 104.579 12 102.5C9.99997 100 9.99997 100 9.06247 96.5C7.71621 92.0652 5.87972 91.3113 1.99997 89C0.0608941 83.1828 0.123028 76.4462 2.18747 70.6875C2.7856 69.8006 3.38372 68.9137 3.99997 68C4.63935 66.9069 5.27872 65.8138 5.93747 64.6875C18.8882 47.279 46.7074 39.5789 67.1953 36.5039C73.0681 35.7814 78.9655 35.7532 84.875 35.625C94.5684 35.3998 103.897 34.4976 113.437 32.75C114.519 32.5574 115.601 32.3649 116.716 32.1665C135.637 28.4502 158.034 17.8849 169.145 1.39844C169.427 0.936953 169.709 0.475469 170 0Z" fill="#FEFCFD"/>
</svg>
