<svg width="66" height="152" viewBox="0 0 66 152" fill="none" xmlns="http://www.w3.org/2000/svg">
<path d="M55.3125 0.0167544C55.3125 0.676754 55.3125 1.33675 55.3125 2.01675C54.6976 2.2591 54.0827 2.50144 53.4492 2.75113C47.355 5.11274 47.355 5.11274 43.3125 10.0168C42.2186 13.2984 42.1477 15.7962 42.0913 19.2526C42.0566 21.1988 42.0566 21.1988 42.0213 23.1844C42.0009 24.6155 41.9808 26.0466 41.9609 27.4777C41.9372 28.9664 41.9132 30.4552 41.889 31.944C41.8132 36.7598 41.7495 41.5757 41.6875 46.3918C41.6767 47.205 41.666 48.0182 41.6549 48.856C41.3916 68.8557 41.1285 88.8617 41.4547 108.862C41.4847 110.746 41.5085 112.631 41.5258 114.515C41.5527 117.083 41.6056 119.649 41.668 122.216C41.6724 122.946 41.6768 123.676 41.6814 124.428C41.8442 129.201 42.9375 131.658 46.3125 135.017C52.1979 138.769 58.2861 141.697 65.3125 142.017C65.3125 144.987 65.3125 147.957 65.3125 151.017C61.542 152.274 59.9825 151.567 56.1875 150.47C54.9356 150.121 53.6837 149.771 52.3938 149.412C51.7281 149.224 51.0625 149.037 50.3766 148.844C35.8847 144.793 21.7918 142.424 6.75317 141.279C4.5189 141.039 2.47247 140.624 0.3125 140.017C0.3125 137.377 0.3125 134.737 0.3125 132.017C1.19293 132.003 2.07336 131.988 2.98047 131.974C4.72264 131.902 4.72264 131.902 6.5 131.829C7.64855 131.794 8.79711 131.76 9.98047 131.724C14.3442 130.798 15.615 129.563 18.3125 126.017C19.0282 122.782 18.9624 119.622 18.9084 116.32C18.9125 115.349 18.9166 114.378 18.9207 113.377C18.9263 111.271 18.9203 109.165 18.9041 107.058C18.8787 103.72 18.8835 100.383 18.896 97.0439C18.9167 89.9514 18.8971 82.8593 18.875 75.7668C18.8539 67.5598 18.8494 59.3533 18.8755 51.1463C18.8789 47.8663 18.8577 44.5871 18.8351 41.3072C18.8376 39.2817 18.8412 37.2562 18.8459 35.2306C18.8331 34.3264 18.8202 33.4222 18.8069 32.4906C18.8714 24.2436 21.4894 17.0016 27.3125 11.0168C35.2219 3.99023 44.6813 -0.224864 55.3125 0.0167544Z" fill="#FEFDFE"/>
</svg>
