<svg width="191" height="91" viewBox="0 0 191 91" fill="none" xmlns="http://www.w3.org/2000/svg">
<path d="M176.312 0.0167847C181.985 1.26477 185.138 2.94175 189.312 7.01678C190.514 10.6225 190.639 13.227 190.312 17.0168C187.625 21.1202 184.973 23.0284 180.562 25.0793C178.977 25.8392 178.977 25.8392 177.359 26.6144C175.543 27.4502 173.722 28.2748 171.891 29.0754C167.057 31.2648 165.122 33.3673 162.312 38.0168C153.486 46.3666 142.578 46.5258 131.164 46.3801C121.853 46.0058 112.798 43.7543 103.766 41.5893C80.8104 36.2325 51.1661 36.6131 30.543 49.0871C27.3942 51.0386 27.3942 51.0386 25.3125 54.0168C24.6525 54.0168 23.9925 54.0168 23.3125 54.0168C23.0238 54.7387 22.735 55.4605 22.4375 56.2043C21.7527 57.9163 21.0353 59.6164 20.2617 61.2902C18.1226 67.4346 18.7048 74.4557 20.1875 80.7043C23.51 84.3199 27.5753 84.5013 32.3125 85.0168C31.9825 86.3368 31.6525 87.6568 31.3125 89.0168C26.2668 90.4352 20.3371 91.4191 15.4336 89.1457C12.566 86.9537 11.2581 84.8868 9.875 81.5793C8.11092 77.5572 6.27 75.9553 2.83594 73.3762C0.417721 71.2184 0.313594 69.0277 0 65.8918C0.692077 57.31 5.12927 50.8059 11.3125 45.0168C14.1615 42.7126 17.1377 40.8411 20.3125 39.0168C21.3205 38.4277 22.3286 37.8386 23.3672 37.2316C32.0801 32.4928 40.6271 30.193 50.3462 28.3869C52.826 27.9201 55.2855 27.37 57.75 26.8293C71.0422 24.3221 84.7075 24.7206 98.1819 24.54C108.574 24.3946 118.908 24.1164 129.258 23.1183C130.455 23.0062 130.455 23.0062 131.677 22.8918C147.529 21.2095 164.982 14.2287 175.25 1.64178C175.601 1.10553 175.951 0.569285 176.312 0.0167847Z" fill="#FEFCFD"/>
</svg>
