<svg width="57" height="108" viewBox="0 0 57 108" fill="none" xmlns="http://www.w3.org/2000/svg">
<path d="M28.3125 0.0167236C28.9725 0.0167236 29.6325 0.0167236 30.3125 0.0167236C34.9553 14.6683 39.2935 29.2424 42.4746 44.2906C43.618 49.5502 45.1154 54.1129 47.3125 59.0167C47.9839 61.2952 48.6078 63.5882 49.1875 65.8917C50.2669 70.1316 51.3912 74.3427 52.6797 78.5245C52.9093 79.2736 53.1389 80.0227 53.3755 80.7946C53.8218 82.2381 54.2755 83.6793 54.7378 85.1178C56.1258 89.6372 56.5311 93.3539 56.3125 98.0167C53.8378 99.1524 51.3584 100.275 48.875 101.392C48.1873 101.709 47.4996 102.026 46.791 102.353C36.3271 107.025 26.5348 107.278 15.25 107.142C13.7975 107.132 12.3451 107.123 10.8926 107.114C7.36574 107.093 3.83917 107.058 0.3125 107.017C0.928603 100.012 2.74444 93.6162 4.75 86.8917C5.48005 84.3927 6.20762 81.8931 6.92969 79.3917C7.12094 78.7292 7.31219 78.0667 7.50923 77.3841C9.93482 68.9234 12.1514 60.4073 14.375 51.8917C14.8007 50.2632 15.2264 48.6347 15.6521 47.0062C16.2779 44.6119 16.9036 42.2176 17.5289 39.8232C19.4255 32.5668 21.3602 25.3209 23.3125 18.0792C23.591 17.0446 23.8695 16.01 24.1565 14.944C25.5033 9.95657 26.8769 4.97931 28.3125 0.0167236Z" fill="#FFBDBF"/>
</svg>
