<svg width="190" height="215" viewBox="0 0 190 215" fill="none" xmlns="http://www.w3.org/2000/svg">
<path d="M135.312 0.0167924C136.182 1.4243 137.032 2.84324 137.875 4.26679C138.351 5.0557 138.826 5.8446 139.316 6.65742C140.443 9.32524 140.329 10.3618 139.312 13.0168C137.518 12.924 137.518 12.924 135.687 12.8293C131.541 12.844 128.788 13.6166 125.312 16.0168C117.444 31.2636 126.545 54.3677 130.312 70.0168C130.718 71.7381 131.123 73.4594 131.527 75.1809C132.888 80.8691 134.433 86.4568 136.25 92.0168C138.186 98.1053 139.439 104.26 140.687 110.517C142.385 118.984 144.406 127.235 146.866 135.51C149.075 143.008 151.021 150.564 152.909 158.148C153.433 160.25 153.961 162.352 154.489 164.454C155.915 170.161 157.32 175.862 158.465 181.634C159.895 190.054 159.895 190.054 164.625 196.892C166.441 198.102 166.441 198.102 168.312 199.017C169.344 199.615 170.375 200.213 171.437 200.829C175.95 202.599 180.827 202.577 185.617 202.806C188.312 203.017 188.312 203.017 189.312 204.017C189.223 205.708 189.067 207.396 188.875 209.079C188.773 209.998 188.671 210.918 188.566 211.864C188.483 212.575 188.399 213.285 188.312 214.017C187.444 213.956 186.575 213.896 185.68 213.833C170.898 212.821 156.136 211.82 141.312 211.829C140.325 211.829 139.338 211.828 138.32 211.827C133.27 211.866 128.355 212.175 123.344 212.796C120.474 213.108 117.635 213.112 114.75 213.079C113.717 213.07 112.685 213.061 111.621 213.052C110.478 213.035 110.478 213.035 109.312 213.017C109.312 209.717 109.312 206.417 109.312 203.017C110.455 202.978 110.455 202.978 111.621 202.939C118.429 202.565 124.491 201.802 130.312 198.017C133.388 193.403 132.191 189.334 131.312 184.017C130.216 179.358 128.879 174.787 127.5 170.204C126.806 167.844 126.112 165.483 125.418 163.122C125.074 161.966 124.73 160.811 124.376 159.62C122.647 153.764 120.98 147.891 119.312 142.017C118.709 142.206 118.106 142.395 117.484 142.591C112.113 144.263 106.698 145.745 101.25 147.142C100.602 147.312 99.9544 147.483 99.287 147.658C89.477 150.133 79.8308 150.146 69.7499 150.079C67.8076 150.073 67.8076 150.073 65.8261 150.066C62.6548 150.054 59.4836 150.038 56.3124 150.017C56.1108 150.828 55.9093 151.64 55.7016 152.476C54.9459 155.516 54.1891 158.556 53.4316 161.595C52.9457 163.546 52.4611 165.497 51.9765 167.448C51.6671 168.689 51.3577 169.93 51.039 171.208C50.7562 172.345 50.4734 173.481 50.182 174.652C49.5672 177.031 48.9125 179.4 48.2299 181.76C46.8776 186.56 46.4148 191.087 47.3124 196.017C49.4095 198.95 52.1038 200.413 55.3124 202.017C58.7496 202.486 62.187 202.885 65.6347 203.267C71.2107 203.915 71.2107 203.915 72.3124 205.017C72.3842 206.536 72.3963 208.058 72.3749 209.579C72.3659 210.406 72.3569 211.232 72.3476 212.083C72.336 212.721 72.3244 213.359 72.3124 214.017C70.9167 214.044 69.5208 214.063 68.1249 214.079C67.3476 214.091 66.5703 214.103 65.7694 214.114C63.3124 214.017 63.3124 214.017 61.0507 213.548C45.5885 210.548 26.2583 210.303 10.8554 213.579C7.97087 214.076 5.23372 214.085 2.31242 214.017C0.205355 210.593 0.225611 207.977 0.312418 204.017C1.44679 203.881 2.58117 203.746 3.74992 203.607C14.7964 202.366 14.7964 202.366 23.725 196.347C25.555 193.661 26.3533 191.275 27.2538 188.154C27.5908 187.002 27.9278 185.85 28.2751 184.663C28.6174 183.46 28.9597 182.257 29.3124 181.017C29.6541 179.844 29.9958 178.672 30.3478 177.464C31.3894 173.881 32.4153 170.293 33.4374 166.704C33.7842 165.495 34.1309 164.285 34.4882 163.038C36.1966 157.052 37.854 151.069 39.3124 145.017C38.0543 144.811 36.7962 144.604 35.4999 144.392C23.8024 141.733 14.4139 134.165 6.87492 125.079C3.1155 117.711 1.36817 110.294 2.31242 102.017C2.70429 101.068 3.09617 100.119 3.49992 99.1418C3.76804 98.4405 4.03617 97.7393 4.31242 97.0168C3.01774 94.9569 3.01774 94.9569 1.31242 93.0168C-1.08326 84.9586 0.444691 77.3237 4.31242 70.0168C8.17414 65.5879 11.9195 62.3734 17.914 61.7434C26.2247 61.4642 31.6668 62.9819 37.9765 68.4621C39.1384 69.5981 40.235 70.8004 41.3124 72.0168C40.6369 72.4525 39.9615 72.8882 39.2655 73.3371C32.408 77.9154 27.9829 81.7129 25.7314 89.9118C24.9049 94.0645 24.9434 98.2339 24.9374 102.454C24.9129 103.357 24.8884 104.26 24.8632 105.191C24.8393 110.698 25.5709 114.563 28.3529 119.345C29.3124 121.017 29.3124 121.017 30.3124 124.017C30.9724 124.017 31.6324 124.017 32.3124 124.017C32.3124 124.677 32.3124 125.337 32.3124 126.017C32.8848 126.303 33.4571 126.589 34.0468 126.884C37.4687 128.595 40.8905 130.306 44.3124 132.017C44.4155 131.13 44.5187 130.243 44.6249 129.329C46.1138 119.036 49.0985 109.089 52.2499 99.2043C54.8928 90.7721 57.3359 82.365 59.3984 73.7746C62.309 61.8086 65.8953 50.0801 69.7148 38.3769C72.0766 31.0304 74.012 23.6231 75.7148 16.0974C76.1902 14.0563 76.7437 12.0338 77.3124 10.0168C79.4881 8.92894 80.9092 8.78467 83.3202 8.5871C84.1343 8.51564 84.9483 8.44418 85.787 8.37055C86.6617 8.29506 87.5363 8.21957 88.4374 8.14179C103.823 6.70457 120.273 -0.389686 135.312 0.0167924Z" fill="#FEFDFE"/>
</svg>
